<svg xmlns="http://www.w3.org/2000/svg" width="18" height="18">
  <path d="M 9 0 C 13.971 0 18 4.029 18 9 C 18 13.971 13.971 18 9 18 C 4.029 18 0 13.971 0 9 C 0 4.029 4.029 0 9 0 Z M 5.278 12.684 C 5.629 13.036 6.199 13.036 6.55 12.684 L 8.813 10.422 L 11.076 12.684 C 11.427 13.036 11.997 13.036 12.349 12.684 C 12.7 12.333 12.7 11.763 12.349 11.412 L 10.086 9.149 L 12.349 6.886 C 12.7 6.535 12.7 5.965 12.349 5.613 C 11.997 5.262 11.427 5.262 11.076 5.613 L 8.813 7.876 L 6.55 5.613 C 6.199 5.262 5.629 5.262 5.278 5.613 C 4.926 5.965 4.926 6.535 5.278 6.886 L 7.54 9.149 L 5.278 11.412 C 4.926 11.763 4.926 12.333 5.278 12.684 Z" fill="rgb(209, 213, 217)"></path>
</svg>
