<svg xmlns="http://www.w3.org/2000/svg"><symbol id="sprite-ds-alert" viewBox="0 0 18 18"><title>ds-alert</title><path d="M1.5 9a7.5 7.5 0 1115 0 7.5 7.5 0 01-15 0z" fill="transparent" stroke-width="1.5" stroke="currentColor" stroke-linecap="round" stroke-linejoin="round"></path><path d="M9 6v3m0 3h0" fill="transparent" stroke-width="2" stroke="currentColor" stroke-linecap="round" stroke-linejoin="round"></path></symbol><symbol id="sprite-ds-bell-light" viewBox="0 0 448 512"><title>ds-bell-light</title><path d="M224 480c-17.66 0-32-14.38-32-32.03h-32c0 35.31 28.72 64.03 64 64.03s64-28.72 64-64.03h-32c0 17.65-14.34 32.03-32 32.03zm209.38-145.19c-27.96-26.62-49.34-54.48-49.34-148.91 0-79.59-63.39-144.5-144.04-152.35V16c0-8.84-7.16-16-16-16s-16 7.16-16 16v17.56C127.35 41.41 63.96 106.31 63.96 185.9c0 94.42-21.39 122.29-49.35 148.91-13.97 13.3-18.38 33.41-11.25 51.23C10.64 404.24 28.16 416 48 416h352c19.84 0 37.36-11.77 44.64-29.97 7.13-17.82 2.71-37.92-11.26-51.22zM400 384H48c-14.23 0-21.34-16.47-11.32-26.01 34.86-33.19 59.28-70.34 59.28-172.08C95.96 118.53 153.23 64 224 64c70.76 0 128.04 54.52 128.04 121.9 0 101.35 24.21 138.7 59.28 172.08C421.38 367.57 414.17 384 400 384z" fill="currentColor"></path></symbol><symbol id="sprite-ds-cancel" viewBox="0 0 18 18"><title>ds-cancel</title><path d="M9 0a9 9 0 019 9 9 9 0 01-9 9 9 9 0 01-9-9 9 9 0 019-9zM5.278 12.684a.898.898 0 001.272 0l2.263-2.262 2.263 2.262a.9.9 0 101.273-1.272l-2.263-2.263 2.263-2.263a.901.901 0 00-1.273-1.273L8.813 7.876 6.55 5.613a.9.9 0 00-1.272 1.273L7.54 9.149l-2.262 2.263a.898.898 0 000 1.272z" fill="currentColor"></path></symbol><symbol id="sprite-ds-check-circle-solid" viewBox="0 0 512 512"><title>ds-check-circle-solid</title><path d="M504 256c0 136.967-111.033 248-248 248S8 392.967 8 256 119.033 8 256 8s248 111.033 248 248zM227.314 387.314l184-184c6.248-6.248 6.248-16.379 0-22.627l-22.627-22.627c-6.248-6.249-16.379-6.249-22.628 0L216 308.118l-70.059-70.059c-6.248-6.248-16.379-6.248-22.628 0l-22.627 22.627c-6.248 6.248-6.248 16.379 0 22.627l104 104c6.249 6.249 16.379 6.249 22.628.001z" fill="currentColor"></path></symbol><symbol id="sprite-ds-check" viewBox="0 0 18 18"><title>ds-check</title><path d="M15 4.5l-8.25 8.25L3 9" fill="transparent" stroke-width="1.5" stroke="currentColor" stroke-linecap="round" stroke-linejoin="round"></path></symbol><symbol id="sprite-ds-chevron-right-solid" viewBox="0 0 320 512"><title>ds-chevron-right-solid</title><path d="M285.476 272.971L91.132 467.314c-9.373 9.373-24.569 9.373-33.941 0l-22.667-22.667c-9.357-9.357-9.375-24.522-.04-33.901L188.505 256 34.484 101.255c-9.335-9.379-9.317-24.544.04-33.901l22.667-22.667c9.373-9.373 24.569-9.373 33.941 0L285.475 239.03c9.373 9.372 9.373 24.568.001 33.941z" fill="currentColor"></path></symbol><symbol id="sprite-ds-chevron-right" viewBox="0 0 20 20"><title>ds-chevron-right</title><path d="M7.5 15l5-5-5-5" fill="transparent" stroke-width="1.667" stroke="currentColor" stroke-linecap="round" stroke-linejoin="round"></path></symbol><symbol id="sprite-ds-chevron" viewBox="0 0 20 20"><title>ds-chevron</title><path d="M5 7.5l5 5 5-5" fill="transparent" stroke-width="1.667" stroke="currentColor" stroke-linecap="round" stroke-linejoin="round"></path></symbol><symbol id="sprite-ds-chevrons" viewBox="0 0 24 24"><title>ds-chevrons</title><path d="M11 7l-5 5 5 5m7-10l-5 5 5 5" fill="transparent" stroke-width="2.25" stroke="currentColor" stroke-linecap="round" stroke-linejoin="round"></path></symbol><symbol id="sprite-ds-close" viewBox="0 0 24 24"><title>ds-close</title><path d="M18 6L6 18M6 6l12 12" fill="transparent" stroke-width="2" stroke="currentColor" stroke-linecap="round" stroke-linejoin="round"></path></symbol><symbol id="sprite-ds-cog-light" viewBox="0 0 512 512"><title>ds-cog-light</title><path d="M482.696 299.276l-32.61-18.827a195.168 195.168 0 000-48.899l32.61-18.827c9.576-5.528 14.195-16.902 11.046-27.501-11.214-37.749-31.175-71.728-57.535-99.595-7.634-8.07-19.817-9.836-29.437-4.282l-32.562 18.798a194.125 194.125 0 00-42.339-24.48V38.049c0-11.13-7.652-20.804-18.484-23.367-37.644-8.909-77.118-8.91-114.77 0-10.831 2.563-18.484 12.236-18.484 23.367v37.614a194.101 194.101 0 00-42.339 24.48L105.23 81.345c-9.621-5.554-21.804-3.788-29.437 4.282-26.36 27.867-46.321 61.847-57.535 99.595-3.149 10.599 1.47 21.972 11.046 27.501l32.61 18.827a195.168 195.168 0 000 48.899l-32.61 18.827c-9.576 5.528-14.195 16.902-11.046 27.501 11.214 37.748 31.175 71.728 57.535 99.595 7.634 8.07 19.817 9.836 29.437 4.283l32.562-18.798a194.08 194.08 0 0042.339 24.479v37.614c0 11.13 7.652 20.804 18.484 23.367 37.645 8.909 77.118 8.91 114.77 0 10.831-2.563 18.484-12.236 18.484-23.367v-37.614a194.138 194.138 0 0042.339-24.479l32.562 18.798c9.62 5.554 21.803 3.788 29.437-4.283 26.36-27.867 46.321-61.847 57.535-99.595 3.149-10.599-1.47-21.972-11.046-27.501zm-65.479 100.461l-46.309-26.74c-26.988 23.071-36.559 28.876-71.039 41.059v53.479a217.145 217.145 0 01-87.738 0v-53.479c-33.621-11.879-43.355-17.395-71.039-41.059l-46.309 26.74c-19.71-22.09-34.689-47.989-43.929-75.958l46.329-26.74c-6.535-35.417-6.538-46.644 0-82.079l-46.329-26.74c9.24-27.969 24.22-53.869 43.929-75.969l46.309 26.76c27.377-23.434 37.063-29.065 71.039-41.069V44.464a216.79 216.79 0 0187.738 0v53.479c33.978 12.005 43.665 17.637 71.039 41.069l46.309-26.76c19.709 22.099 34.689 47.999 43.929 75.969l-46.329 26.74c6.536 35.426 6.538 46.644 0 82.079l46.329 26.74c-9.24 27.968-24.219 53.868-43.929 75.957zM256 160c-52.935 0-96 43.065-96 96s43.065 96 96 96 96-43.065 96-96-43.065-96-96-96zm0 160c-35.29 0-64-28.71-64-64s28.71-64 64-64 64 28.71 64 64-28.71 64-64 64z" fill="currentColor"></path></symbol><symbol id="sprite-ds-ellipsis-h-solid" viewBox="0 0 512 512"><title>ds-ellipsis-h-solid</title><path d="M328 256c0 39.8-32.2 72-72 72s-72-32.2-72-72 32.2-72 72-72 72 32.2 72 72zm104-72c-39.8 0-72 32.2-72 72s32.2 72 72 72 72-32.2 72-72-32.2-72-72-72zm-352 0c-39.8 0-72 32.2-72 72s32.2 72 72 72 72-32.2 72-72-32.2-72-72-72z" fill="currentColor"></path></symbol><symbol id="sprite-ds-ellipsis-h" viewBox="0 0 512 512"><title>ds-ellipsis-h</title><path d="M304 256c0 26.5-21.5 48-48 48s-48-21.5-48-48 21.5-48 48-48 48 21.5 48 48zm120-48c-26.5 0-48 21.5-48 48s21.5 48 48 48 48-21.5 48-48-21.5-48-48-48zm-336 0c-26.5 0-48 21.5-48 48s21.5 48 48 48 48-21.5 48-48-21.5-48-48-48z" fill="currentColor"></path></symbol><symbol id="sprite-ds-ellipsis-v-solid" viewBox="0 0 192 512"><title>ds-ellipsis-v-solid</title><path d="M96 184c39.8 0 72 32.2 72 72s-32.2 72-72 72-72-32.2-72-72 32.2-72 72-72zM24 80c0 39.8 32.2 72 72 72s72-32.2 72-72S135.8 8 96 8 24 40.2 24 80zm0 352c0 39.8 32.2 72 72 72s72-32.2 72-72-32.2-72-72-72-72 32.2-72 72z" fill="currentColor"></path></symbol><symbol id="sprite-ds-ellipsis-v" viewBox="0 0 128 512"><title>ds-ellipsis-v</title><path d="M64 208c26.5 0 48 21.5 48 48s-21.5 48-48 48-48-21.5-48-48 21.5-48 48-48zM16 104c0 26.5 21.5 48 48 48s48-21.5 48-48-21.5-48-48-48-48 21.5-48 48zm0 304c0 26.5 21.5 48 48 48s48-21.5 48-48-21.5-48-48-48-48 21.5-48 48z" fill="currentColor"></path></symbol><symbol id="sprite-ds-exclamation-triangle-solid" viewBox="0 0 576 512"><title>ds-exclamation-triangle-solid</title><path d="M569.517 440.013C587.975 472.007 564.806 512 527.94 512H48.054c-36.937 0-59.999-40.055-41.577-71.987L246.423 23.985c18.467-32.009 64.72-31.951 83.154 0l239.94 416.028zM288 354c-25.405 0-46 20.595-46 46s20.595 46 46 46 46-20.595 46-46-20.595-46-46-46zm-43.673-165.346l7.418 136c.347 6.364 5.609 11.346 11.982 11.346h48.546c6.373 0 11.635-4.982 11.982-11.346l7.418-136c.375-6.874-5.098-12.654-11.982-12.654h-63.383c-6.884 0-12.356 5.78-11.981 12.654z" fill="currentColor"></path></symbol><symbol id="sprite-ds-filter" viewBox="0 0 18 18"><title>ds-filter</title><path d="M3 15.75V10.5m0-3V2.25m6 13.5V9m0-3V2.25m6 13.5V12m0-3V2.25M.75 10.5h4.5M6.75 6h4.5m1.5 6h4.5" fill="transparent" stroke-width="1.5" stroke="currentColor" stroke-linecap="round" stroke-linejoin="round"></path></symbol><symbol class="svg-inline--fa fa-info-circle fa-w-16" id="sprite-ds-info-circle-solid" viewBox="0 0 512 512"><title>ds-info-circle-solid</title><path fill="currentColor" d="M256 8C119.043 8 8 119.083 8 256c0 136.997 111.043 248 248 248s248-111.003 248-248C504 119.083 392.957 8 256 8zm0 110c23.196 0 42 18.804 42 42s-18.804 42-42 42-42-18.804-42-42 18.804-42 42-42zm56 254c0 6.627-5.373 12-12 12h-88c-6.627 0-12-5.373-12-12v-24c0-6.627 5.373-12 12-12h12v-64h-12c-6.627 0-12-5.373-12-12v-24c0-6.627 5.373-12 12-12h64c6.627 0 12 5.373 12 12v100h12c6.627 0 12 5.373 12 12v24z"></path></symbol><symbol id="sprite-ds-play-arrow" viewBox="0 0 22 22"><title>ds-play-arrow</title><path d="M17.745 5.958H4.912l6.416 10.083z" fill="currentColor"></path></symbol><symbol fill="none" stroke="currentColor" stroke-width="2" stroke-linecap="round" stroke-linejoin="round" class="feather feather-plus" id="sprite-ds-plus" viewBox="0 0 24 24"><title>ds-plus</title><path d="M12 5v14m-7-7h14" fill="currentColor"></path></symbol><symbol id="sprite-ds-search" viewBox="0 0 18 18"><title>ds-search</title><path d="M2.25 8.25a6 6 0 1112 0 6 6 0 01-12 0zm13.5 7.5l-3.263-3.263" fill="transparent" stroke-width="1.5" stroke="currentColor" stroke-linecap="round" stroke-linejoin="round"></path></symbol><symbol id="sprite-ds-setting" viewBox="0 0 24 24"><title>ds-setting</title><path d="M0 0h24v24H0z" fill="transparent"></path><path d="M19.14 12.94c.04-.3.06-.61.06-.94 0-.32-.02-.64-.07-.94l2.03-1.58a.49.49 0 00.12-.61l-1.92-3.32a.489.489 0 00-.59-.22l-2.39.96c-.5-.38-1.03-.7-1.62-.94l-.36-2.54a.484.484 0 00-.48-.41h-3.84c-.24 0-.43.17-.47.41l-.36 2.54c-.59.24-1.13.57-1.62.94l-2.39-.96c-.22-.08-.47 0-.59.22L2.74 8.87c-.12.21-.08.47.12.61l2.03 1.58c-.05.3-.09.63-.09.94 0 .31.02.64.07.94l-2.03 1.58a.49.49 0 00-.12.61l1.92 3.32c.12.22.37.29.59.22l2.39-.96c.5.38 1.03.7 1.62.94l.36 2.54c.05.24.24.41.48.41h3.84c.24 0 .44-.17.47-.41l.36-2.54c.59-.24 1.13-.56 1.62-.94l2.39.96c.22.08.47 0 .59-.22l1.92-3.32c.12-.22.07-.47-.12-.61zM12 15.6A3.61 3.61 0 018.4 12c0-1.98 1.62-3.6 3.6-3.6s3.6 1.62 3.6 3.6-1.62 3.6-3.6 3.6z" fill="currentColor"></path></symbol><symbol id="sprite-ds-spinner" viewBox="0 0 512 512"><title>ds-spinner</title><path fill="currentColor" d="M304 48c0 26.51-21.49 48-48 48s-48-21.49-48-48 21.49-48 48-48 48 21.49 48 48zm-48 368c-26.51 0-48 21.49-48 48s21.49 48 48 48 48-21.49 48-48-21.49-48-48-48zm208-208c-26.51 0-48 21.49-48 48s21.49 48 48 48 48-21.49 48-48-21.49-48-48-48zM96 256c0-26.51-21.49-48-48-48S0 229.49 0 256s21.49 48 48 48 48-21.49 48-48zm12.922 99.078c-26.51 0-48 21.49-48 48s21.49 48 48 48 48-21.49 48-48c0-26.509-21.491-48-48-48zm294.156 0c-26.51 0-48 21.49-48 48s21.49 48 48 48 48-21.49 48-48c0-26.509-21.49-48-48-48zM108.922 60.922c-26.51 0-48 21.49-48 48s21.49 48 48 48 48-21.49 48-48-21.491-48-48-48z"></path></symbol><symbol id="sprite-ds-thumbs-up-duotone" viewBox="0 0 512 512"><title>ds-thumbs-up-duotone</title><path d="M163.56 229.81c39.61-39.15 56.65-80.59 89.12-113.11 14.8-14.84 20.18-37.24 25.39-58.91C282.52 39.29 291.82 0 312 0c24 0 72 8 72 81.45 0 42.42-26 66.21-33.28 94.55h101.73c33.39 0 59.39 27.75 59.55 58.1.08 17.94-7.55 37.25-19.44 49.19l-.11.12c9.84 23.33 8.24 56-9.31 79.46 8.68 25.9-.07 57.71-16.38 74.76 4.3 17.6 2.24 32.58-6.15 44.63C440.2 511.59 389.62 512 346.84 512H344c-48.28 0-87.8-17.6-119.56-31.73-16-7.09-36.82-15.88-52.65-16.17a12 12 0 01-11.78-12V238.33a12 12 0 013.55-8.52z" opacity=".4" fill="currentColor"></path><path d="M104 224H24a24 24 0 00-24 24v240a24 24 0 0024 24h80a24 24 0 0024-24V248a24 24 0 00-24-24zM64 472a24 24 0 1124-24 24 24 0 01-24 24z" class="fa-primary" fill="currentColor"></path></symbol><symbol id="sprite-ds-thumbs-up-solid" viewBox="0 0 512 512"><title>ds-thumbs-up-solid</title><path d="M104 224H24c-13.255 0-24 10.745-24 24v240c0 13.255 10.745 24 24 24h80c13.255 0 24-10.745 24-24V248c0-13.255-10.745-24-24-24zM64 472c-13.255 0-24-10.745-24-24s10.745-24 24-24 24 10.745 24 24-10.745 24-24 24zM384 81.452c0 42.416-25.97 66.208-33.277 94.548h101.723c33.397 0 59.397 27.746 59.553 58.098.084 17.938-7.546 37.249-19.439 49.197l-.11.11c9.836 23.337 8.237 56.037-9.308 79.469 8.681 25.895-.069 57.704-16.382 74.757 4.298 17.598 2.244 32.575-6.148 44.632C440.202 511.587 389.616 512 346.839 512l-2.845-.001c-48.287-.017-87.806-17.598-119.56-31.725-15.957-7.099-36.821-15.887-52.651-16.178-6.54-.12-11.783-5.457-11.783-11.998v-213.77c0-3.2 1.282-6.271 3.558-8.521 39.614-39.144 56.648-80.587 89.117-113.111 14.804-14.832 20.188-37.236 25.393-58.902C282.515 39.293 291.817 0 312 0c24 0 72 8 72 81.452z" fill="currentColor"></path></symbol><symbol id="sprite-ds-thumbs-up" viewBox="0 0 512 512"><title>ds-thumbs-up</title><path d="M466.27 286.69C475.04 271.84 480 256 480 236.85c0-44.015-37.218-85.58-85.82-85.58H357.7c4.92-12.81 8.85-28.13 8.85-46.54C366.55 31.936 328.86 0 271.28 0c-61.607 0-58.093 94.933-71.76 108.6-22.747 22.747-49.615 66.447-68.76 83.4H32c-17.673 0-32 14.327-32 32v240c0 17.673 14.327 32 32 32h64c14.893 0 27.408-10.174 30.978-23.95 44.509 1.001 75.06 39.94 177.802 39.94 7.22 0 15.22.01 22.22.01 77.117 0 111.986-39.423 112.94-95.33 13.319-18.425 20.299-43.122 17.34-66.99 9.854-18.452 13.664-40.343 8.99-62.99zm-61.75 53.83c12.56 21.13 1.26 49.41-13.94 57.57 7.7 48.78-17.608 65.9-53.12 65.9h-37.82c-71.639 0-118.029-37.82-171.64-37.82V240h10.92c28.36 0 67.98-70.89 94.54-97.46 28.36-28.36 18.91-75.63 37.82-94.54 47.27 0 47.27 32.98 47.27 56.73 0 39.17-28.36 56.72-28.36 94.54h103.99c21.11 0 37.73 18.91 37.82 37.82.09 18.9-12.82 37.81-22.27 37.81 13.489 14.555 16.371 45.236-5.21 65.62zM88 432c0 13.255-10.745 24-24 24s-24-10.745-24-24 10.745-24 24-24 24 10.745 24 24z" fill="currentColor"></path></symbol><symbol id="sprite-ds-trash-alt" viewBox="0 0 448 512"><title>ds-trash-alt</title><path d="M268 416h24a12 12 0 0012-12V188a12 12 0 00-12-12h-24a12 12 0 00-12 12v216a12 12 0 0012 12zM432 80h-82.41l-34-56.7A48 48 0 00274.41 0H173.59a48 48 0 00-41.16 23.3L98.41 80H16A16 16 0 000 96v16a16 16 0 0016 16h16v336a48 48 0 0048 48h288a48 48 0 0048-48V128h16a16 16 0 0016-16V96a16 16 0 00-16-16zM171.84 50.91A6 6 0 01177 48h94a6 6 0 015.15 2.91L293.61 80H154.39zM368 464H80V128h288zm-212-48h24a12 12 0 0012-12V188a12 12 0 00-12-12h-24a12 12 0 00-12 12v216a12 12 0 0012 12z" fill="currentColor"></path></symbol></svg>